<svg id="visual" viewBox="0 0 960 540" width="960" height="540" xmlns="http://www.w3.org/2000/svg" xmlns:xlink="http://www.w3.org/1999/xlink" version="1.1"><rect x="0" y="0" width="960" height="540" fill="#FFF8F0"></rect><defs><linearGradient id="grad1_0" x1="43.8%" y1="0%" x2="100%" y2="100%"><stop offset="14.444444444444446%" stop-color="#fbe4e8" stop-opacity="1"></stop><stop offset="85.55555555555554%" stop-color="#fbe4e8" stop-opacity="1"></stop></linearGradient></defs><defs><linearGradient id="grad1_1" x1="43.8%" y1="0%" x2="100%" y2="100%"><stop offset="14.444444444444446%" stop-color="#fbe4e8" stop-opacity="1"></stop><stop offset="85.55555555555554%" stop-color="#feeae8" stop-opacity="1"></stop></linearGradient></defs><defs><linearGradient id="grad1_2" x1="43.8%" y1="0%" x2="100%" y2="100%"><stop offset="14.444444444444446%" stop-color="#fff1eb" stop-opacity="1"></stop><stop offset="85.55555555555554%" stop-color="#feeae8" stop-opacity="1"></stop></linearGradient></defs><defs><linearGradient id="grad1_3" x1="43.8%" y1="0%" x2="100%" y2="100%"><stop offset="14.444444444444446%" stop-color="#fff1eb" stop-opacity="1"></stop><stop offset="85.55555555555554%" stop-color="#fff8f0" stop-opacity="1"></stop></linearGradient></defs><defs><linearGradient id="grad2_0" x1="0%" y1="0%" x2="56.3%" y2="100%"><stop offset="14.444444444444446%" stop-color="#fbe4e8" stop-opacity="1"></stop><stop offset="85.55555555555554%" stop-color="#fbe4e8" stop-opacity="1"></stop></linearGradient></defs><defs><linearGradient id="grad2_1" x1="0%" y1="0%" x2="56.3%" y2="100%"><stop offset="14.444444444444446%" stop-color="#feeae8" stop-opacity="1"></stop><stop offset="85.55555555555554%" stop-color="#fbe4e8" stop-opacity="1"></stop></linearGradient></defs><defs><linearGradient id="grad2_2" x1="0%" y1="0%" x2="56.3%" y2="100%"><stop offset="14.444444444444446%" stop-color="#feeae8" stop-opacity="1"></stop><stop offset="85.55555555555554%" stop-color="#fff1eb" stop-opacity="1"></stop></linearGradient></defs><defs><linearGradient id="grad2_3" x1="0%" y1="0%" x2="56.3%" y2="100%"><stop offset="14.444444444444446%" stop-color="#fff8f0" stop-opacity="1"></stop><stop offset="85.55555555555554%" stop-color="#fff1eb" stop-opacity="1"></stop></linearGradient></defs><g transform="translate(960, 0)"><path d="M0 351C-63.1 342.8 -126.1 334.6 -175.5 304C-224.9 273.4 -260.6 220.4 -287.5 166C-314.5 111.6 -332.7 55.8 -351 0L0 0Z" fill="#fff5ed"></path><path d="M0 263.3C-47.3 257.1 -94.6 250.9 -131.6 228C-168.7 205 -195.4 165.3 -215.6 124.5C-235.9 83.7 -249.6 41.9 -263.2 0L0 0Z" fill="#ffeee9"></path><path d="M0 175.5C-31.5 171.4 -63.1 167.3 -87.7 152C-112.4 136.7 -130.3 110.2 -143.8 83C-157.2 55.8 -166.4 27.9 -175.5 0L0 0Z" fill="#fde7e8"></path><path d="M0 87.8C-15.8 85.7 -31.5 83.6 -43.9 76C-56.2 68.3 -65.1 55.1 -71.9 41.5C-78.6 27.9 -83.2 14 -87.7 0L0 0Z" fill="#fbe4e8"></path></g><g transform="translate(0, 540)"><path d="M0 -351C69 -346.2 137.9 -341.4 175.5 -304C213.1 -266.6 219.3 -196.6 243.4 -140.5C267.4 -84.4 309.2 -42.2 351 0L0 0Z" fill="#fff5ed"></path><path d="M0 -263.2C51.7 -259.6 103.4 -256 131.6 -228C159.8 -199.9 164.5 -147.4 182.5 -105.4C200.5 -63.3 231.9 -31.7 263.3 0L0 0Z" fill="#ffeee9"></path><path d="M0 -175.5C34.5 -173.1 69 -170.7 87.7 -152C106.5 -133.3 109.7 -98.3 121.7 -70.3C133.7 -42.2 154.6 -21.1 175.5 0L0 0Z" fill="#fde7e8"></path><path d="M0 -87.7C17.2 -86.5 34.5 -85.3 43.9 -76C53.3 -66.6 54.8 -49.1 60.8 -35.1C66.8 -21.1 77.3 -10.6 87.8 0L0 0Z" fill="#fbe4e8"></path></g></svg>